<?xml version="1.0" standalone="no"?>
<!DOCTYPE svg PUBLIC "-//W3C//DTD SVG 20010904//EN"
 "http://www.w3.org/TR/2001/REC-SVG-20010904/DTD/svg10.dtd">
<svg version="1.0" xmlns="http://www.w3.org/2000/svg"
 width="700.000000pt" height="700.000000pt" viewBox="0 0 700.000000 700.000000"
 preserveAspectRatio="xMidYMid meet">
<metadata>
Created by potrace 1.11, written by Peter Selinger 2001-2013
</metadata>
<g transform="translate(0.000000,700.000000) scale(0.100000,-0.100000)"
fill="#000000" stroke="none">
<path d="M3280 6994 c-19 -2 -84 -9 -145 -15 -955 -93 -1835 -591 -2433 -1377
-328 -430 -561 -971 -651 -1514 -38 -226 -45 -320 -45 -588 0 -268 7 -362 45
-588 163 -977 753 -1855 1601 -2383 438 -272 907 -437 1443 -506 196 -25 614
-25 810 0 430 56 786 162 1155 346 729 364 1312 973 1639 1714 144 325 238
675 283 1052 16 139 16 595 0 730 -95 786 -401 1459 -915 2010 -582 625 -1309
996 -2160 1101 -115 14 -550 27 -627 18z m426 -2309 c305 -54 577 -221 760
-470 353 -479 303 -1152 -117 -1565 -159 -157 -332 -255 -556 -317 -91 -25
-112 -27 -293 -27 -182 0 -202 2 -294 27 -225 62 -395 160 -555 317 -370 365
-459 947 -214 1411 171 325 488 558 849 623 107 19 311 20 420 1z"/>
</g>
</svg>
